<svg width="115" height="115" viewBox="0 0 115 115" fill="none" xmlns="http://www.w3.org/2000/svg">
<circle cx="33.6436" cy="1.83511" r="1.83511" fill="#C4C4C4"/>
<circle cx="33.6436" cy="17.7394" r="1.83511" fill="#C4C4C4"/>
<circle cx="33.6436" cy="33.6436" r="1.83511" fill="#C4C4C4"/>
<circle cx="33.6436" cy="49.5479" r="1.83511" fill="#C4C4C4"/>
<circle cx="49.5479" cy="1.83511" r="1.83511" fill="#C4C4C4"/>
<circle cx="49.5479" cy="17.7394" r="1.83511" fill="#C4C4C4"/>
<circle cx="49.5479" cy="33.6436" r="1.83511" fill="#C4C4C4"/>
<circle cx="49.5479" cy="49.5479" r="1.83511" fill="#C4C4C4"/>
<circle cx="17.7394" cy="1.83511" r="1.83511" fill="#C4C4C4"/>
<circle cx="17.7394" cy="17.7394" r="1.83511" fill="#C4C4C4"/>
<circle cx="17.7394" cy="33.6436" r="1.83511" fill="#C4C4C4"/>
<circle cx="17.7394" cy="49.5479" r="1.83511" fill="#C4C4C4"/>
<circle cx="1.83511" cy="1.83511" r="1.83511" fill="#C4C4C4"/>
<circle cx="1.83511" cy="17.7394" r="1.83511" fill="#C4C4C4"/>
<circle cx="1.83511" cy="33.6436" r="1.83511" fill="#C4C4C4"/>
<circle cx="1.83511" cy="49.5479" r="1.83511" fill="#C4C4C4"/>
<circle cx="33.6436" cy="65.4521" r="1.83511" fill="#C4C4C4"/>
<circle cx="33.6436" cy="81.3564" r="1.83511" fill="#C4C4C4"/>
<circle cx="33.6436" cy="97.2606" r="1.83511" fill="#C4C4C4"/>
<circle cx="33.6436" cy="113.165" r="1.83511" fill="#C4C4C4"/>
<circle cx="49.5479" cy="65.4521" r="1.83511" fill="#C4C4C4"/>
<circle cx="49.5479" cy="81.3564" r="1.83511" fill="#C4C4C4"/>
<circle cx="49.5479" cy="97.2606" r="1.83511" fill="#C4C4C4"/>
<circle cx="49.5479" cy="113.165" r="1.83511" fill="#C4C4C4"/>
<circle cx="17.7394" cy="65.4521" r="1.83511" fill="#C4C4C4"/>
<circle cx="17.7394" cy="81.3564" r="1.83511" fill="#C4C4C4"/>
<circle cx="17.7394" cy="97.2606" r="1.83511" fill="#C4C4C4"/>
<circle cx="17.7394" cy="113.165" r="1.83511" fill="#C4C4C4"/>
<circle cx="1.83511" cy="65.4521" r="1.83511" fill="#C4C4C4"/>
<circle cx="1.83511" cy="81.3564" r="1.83511" fill="#C4C4C4"/>
<circle cx="1.83511" cy="97.2606" r="1.83511" fill="#C4C4C4"/>
<circle cx="1.83511" cy="113.165" r="1.83511" fill="#C4C4C4"/>
<circle cx="97.2607" cy="1.83511" r="1.83511" fill="#C4C4C4"/>
<circle cx="97.2607" cy="17.7394" r="1.83511" fill="#C4C4C4"/>
<circle cx="97.2607" cy="33.6436" r="1.83511" fill="#C4C4C4"/>
<circle cx="97.2607" cy="49.5479" r="1.83511" fill="#C4C4C4"/>
<circle cx="113.165" cy="1.83511" r="1.83511" fill="#C4C4C4"/>
<circle cx="113.165" cy="17.7394" r="1.83511" fill="#C4C4C4"/>
<circle cx="113.165" cy="33.6436" r="1.83511" fill="#C4C4C4"/>
<circle cx="113.165" cy="49.5479" r="1.83511" fill="#C4C4C4"/>
<circle cx="81.3564" cy="1.83511" r="1.83511" fill="#C4C4C4"/>
<circle cx="81.3564" cy="17.7394" r="1.83511" fill="#C4C4C4"/>
<circle cx="81.3564" cy="33.6436" r="1.83511" fill="#C4C4C4"/>
<circle cx="81.3564" cy="49.5479" r="1.83511" fill="#C4C4C4"/>
<circle cx="65.4522" cy="1.83511" r="1.83511" fill="#C4C4C4"/>
<circle cx="65.4521" cy="17.7394" r="1.83511" fill="#C4C4C4"/>
<circle cx="65.4521" cy="33.6436" r="1.83511" fill="#C4C4C4"/>
<circle cx="65.4521" cy="49.5479" r="1.83511" fill="#C4C4C4"/>
<circle cx="97.2607" cy="65.4521" r="1.83511" fill="#C4C4C4"/>
<circle cx="97.2607" cy="81.3564" r="1.83511" fill="#C4C4C4"/>
<circle cx="97.2607" cy="97.2606" r="1.83511" fill="#C4C4C4"/>
<circle cx="97.2607" cy="113.165" r="1.83511" fill="#C4C4C4"/>
<circle cx="113.165" cy="65.4521" r="1.83511" fill="#C4C4C4"/>
<circle cx="113.165" cy="81.3564" r="1.83511" fill="#C4C4C4"/>
<circle cx="113.165" cy="97.2606" r="1.83511" fill="#C4C4C4"/>
<circle cx="113.165" cy="113.165" r="1.83511" fill="#C4C4C4"/>
<circle cx="81.3564" cy="65.4521" r="1.83511" fill="#C4C4C4"/>
<circle cx="81.3564" cy="81.3564" r="1.83511" fill="#C4C4C4"/>
<circle cx="81.3564" cy="97.2606" r="1.83511" fill="#C4C4C4"/>
<circle cx="81.3564" cy="113.165" r="1.83511" fill="#C4C4C4"/>
<circle cx="65.4522" cy="65.4521" r="1.83511" fill="#C4C4C4"/>
<circle cx="65.4521" cy="81.3564" r="1.83511" fill="#C4C4C4"/>
<circle cx="65.4521" cy="97.2606" r="1.83511" fill="#C4C4C4"/>
<circle cx="65.4521" cy="113.165" r="1.83511" fill="#C4C4C4"/>
</svg>
