<svg width="13" height="13" viewBox="0 0 13 13" fill="none" xmlns="http://www.w3.org/2000/svg">
<path d="M4.6215 0.865648C4.86817 0.618918 5.16102 0.423197 5.48334 0.289664C5.80566 0.156131 6.15112 0.0874023 6.5 0.0874023C6.84889 0.0874023 7.19435 0.156131 7.51667 0.289664C7.83898 0.423197 8.13184 0.618918 8.3785 0.865648L12.1344 4.62159C12.3812 4.86825 12.5769 5.1611 12.7104 5.48342C12.844 5.80574 12.9127 6.1512 12.9127 6.50009C12.9127 6.84897 12.844 7.19443 12.7104 7.51675C12.5769 7.83907 12.3812 8.13192 12.1344 8.37859L8.3785 12.1345C8.13184 12.3813 7.83898 12.577 7.51667 12.7105C7.19435 12.844 6.84889 12.9128 6.5 12.9128C6.15112 12.9128 5.80566 12.844 5.48334 12.7105C5.16102 12.577 4.86817 12.3813 4.6215 12.1345L0.865566 8.37859C0.618836 8.13192 0.423115 7.83907 0.289582 7.51675C0.156049 7.19443 0.0873203 6.84897 0.0873203 6.50009C0.0873203 6.1512 0.156049 5.80574 0.289582 5.48342C0.423115 5.1611 0.618836 4.86825 0.865566 4.62159L4.6215 0.865648ZM7.62732 1.61684C7.47931 1.46873 7.30357 1.35125 7.11014 1.27109C6.91671 1.19093 6.70938 1.14968 6.5 1.14968C6.29062 1.14968 6.0833 1.19093 5.88987 1.27109C5.69644 1.35125 5.5207 1.46873 5.37269 1.61684L1.61675 5.37277C1.46865 5.52078 1.35117 5.69652 1.27101 5.88995C1.19085 6.08338 1.14959 6.29071 1.14959 6.50009C1.14959 6.70947 1.19085 6.91679 1.27101 7.11022C1.35117 7.30365 1.46865 7.47939 1.61675 7.6274L5.37269 11.3833C5.5207 11.5314 5.69644 11.6489 5.88987 11.7291C6.0833 11.8092 6.29062 11.8505 6.5 11.8505C6.70938 11.8505 6.91671 11.8092 7.11014 11.7291C7.30357 11.6489 7.47931 11.5314 7.62732 11.3833L11.3833 7.6274C11.5314 7.47939 11.6488 7.30365 11.729 7.11022C11.8092 6.91679 11.8504 6.70947 11.8504 6.50009C11.8504 6.29071 11.8092 6.08338 11.729 5.88995C11.6488 5.69652 11.5314 5.52078 11.3833 5.37277L7.62732 1.61684ZM6.65513 2.93646C6.75475 2.83687 6.88985 2.78092 7.03072 2.78092C7.17159 2.78092 7.30669 2.83687 7.40632 2.93646L9.00007 4.53021C9.04954 4.57956 9.08879 4.63818 9.11557 4.70272C9.14236 4.76727 9.15614 4.83646 9.15614 4.90634C9.15614 4.97621 9.14236 5.0454 9.11557 5.10995C9.08879 5.17449 9.04954 5.23311 9.00007 5.28246L7.40632 6.87621C7.30656 6.97582 7.17132 7.03173 7.03035 7.03163C6.88937 7.03153 6.75421 6.97543 6.6546 6.87568C6.55498 6.77593 6.49908 6.64069 6.49918 6.49971C6.49928 6.35874 6.55537 6.22357 6.65513 6.12396L7.34257 5.43759H5.96875C5.82786 5.43759 5.69273 5.49356 5.5931 5.59319C5.49347 5.69281 5.4375 5.82794 5.4375 5.96884V8.62509C5.4375 8.76598 5.38153 8.90111 5.2819 9.00074C5.18228 9.10037 5.04715 9.15634 4.90625 9.15634C4.76536 9.15634 4.63023 9.10037 4.5306 9.00074C4.43097 8.90111 4.375 8.76598 4.375 8.62509V5.96884C4.375 5.54615 4.54292 5.14077 4.8418 4.84188C5.14069 4.543 5.54606 4.37509 5.96875 4.37509H7.34257L6.65513 3.68871C6.60566 3.63936 6.5664 3.58074 6.53962 3.5162C6.51284 3.45165 6.49905 3.38246 6.49905 3.31259C6.49905 3.24271 6.51284 3.17352 6.53962 3.10897C6.5664 3.04443 6.60566 2.98581 6.65513 2.93646Z" fill="#EFF7F5"/>
</svg>
