<svg width="20" height="20" viewBox="0 0 20 20" fill="none" xmlns="http://www.w3.org/2000/svg">
<g clip-path="url(#clip0_108_7)">
<path d="M9.99997 9.44444C10.7691 9.44444 11.521 9.21636 12.1605 8.78904C12.8 8.36172 13.2985 7.75436 13.5928 7.04376C13.8872 6.33316 13.9642 5.55123 13.8141 4.79686C13.6641 4.04249 13.2937 3.34956 12.7498 2.80569C12.206 2.26182 11.513 1.89144 10.7587 1.74138C10.0043 1.59133 9.22236 1.66834 8.51176 1.96268C7.80116 2.25702 7.1938 2.75547 6.76648 3.395C6.33916 4.03452 6.11108 4.7864 6.11108 5.55555C6.11108 6.58694 6.52081 7.5761 7.25011 8.30541C7.97942 9.03471 8.96858 9.44444 9.99997 9.44444ZM9.99997 2.77777C10.5494 2.77777 11.0864 2.94068 11.5432 3.24591C12 3.55114 12.3561 3.98496 12.5663 4.49254C12.7765 5.00011 12.8316 5.55863 12.7244 6.09746C12.6172 6.6363 12.3526 7.13125 11.9642 7.51973C11.5757 7.90821 11.0807 8.17277 10.5419 8.27995C10.0031 8.38713 9.44454 8.33212 8.93696 8.12188C8.42939 7.91164 7.99556 7.5556 7.69034 7.0988C7.38511 6.64199 7.2222 6.10494 7.2222 5.55555C7.2222 4.81883 7.51485 4.1123 8.03579 3.59136C8.55672 3.07043 9.26326 2.77777 9.99997 2.77777Z" fill="white"/>
<path d="M16.9278 13.5389C16.0368 12.5972 14.9632 11.8472 13.7725 11.3346C12.5818 10.8219 11.2991 10.5576 10.0028 10.5576C8.70643 10.5576 7.42371 10.8219 6.23303 11.3346C5.04234 11.8472 3.96871 12.5972 3.07777 13.5389C2.88461 13.7452 2.77733 14.0174 2.77777 14.3V17.2222C2.77777 17.5169 2.89484 17.7995 3.10321 18.0079C3.31158 18.2163 3.5942 18.3333 3.88888 18.3333H16.1111C16.4058 18.3333 16.6884 18.2163 16.8968 18.0079C17.1052 17.7995 17.2222 17.5169 17.2222 17.2222V14.3C17.2242 14.0181 17.1189 13.7461 16.9278 13.5389ZM16.1111 17.2222H3.88888V14.2944C4.67623 13.4654 5.62404 12.8052 6.67464 12.354C7.72523 11.9029 8.85664 11.6703 10 11.6703C11.1434 11.6703 12.2748 11.9029 13.3254 12.354C14.3759 12.8052 15.3238 13.4654 16.1111 14.2944V17.2222Z" fill="white"/>
</g>
<defs>
<clipPath id="clip0_108_7">
<rect width="20" height="20" fill="white"/>
</clipPath>
</defs>
</svg>
