<svg width="22" height="18" viewBox="0 0 22 18" fill="none" xmlns="http://www.w3.org/2000/svg">
<path d="M13.0912 17.4525L21.5 9.00003L13.0913 0.547526C13.0153 0.447799 12.9188 0.365553 12.8083 0.306356C12.6978 0.247159 12.5759 0.212393 12.4508 0.204412C12.3257 0.19643 12.2004 0.21542 12.0833 0.260095C11.9661 0.30477 11.86 0.374086 11.772 0.463353C11.684 0.55262 11.6162 0.659752 11.5732 0.777497C11.5302 0.895241 11.513 1.02085 11.5228 1.14582C11.5325 1.27079 11.569 1.3922 11.6298 1.50183C11.6906 1.61147 11.7742 1.70677 11.875 1.78128L18.1662 8.12503L1.4275 8.12502C1.19543 8.12502 0.972875 8.21721 0.808782 8.38131C0.644687 8.5454 0.552499 8.76796 0.552499 9.00002C0.552499 9.23209 0.644687 9.45465 0.808782 9.61874C0.972875 9.78284 1.19543 9.87502 1.4275 9.87502L18.1662 9.87503L11.875 16.2188C11.7114 16.3835 11.6199 16.6066 11.6208 16.8387C11.6216 17.0709 11.7146 17.2933 11.8794 17.4569C12.0441 17.6205 12.2671 17.712 12.4993 17.7111C12.7315 17.7103 12.9539 17.6173 13.1175 17.4525L13.0912 17.4525Z" fill="#004F44"/>
</svg>
